<?xml version="1.0" standalone="no"?>
<!DOCTYPE svg PUBLIC "-//W3C//DTD SVG 20010904//EN"
 "http://www.w3.org/TR/2001/REC-SVG-20010904/DTD/svg10.dtd">
<svg version="1.0" xmlns="http://www.w3.org/2000/svg"
 width="512.000000pt" height="512.000000pt" viewBox="0 0 512.000000 512.000000"
 preserveAspectRatio="xMidYMid meet">
<metadata>
Created by potrace 1.14, written by Peter Selinger 2001-2017
</metadata>
<g transform="translate(0.000000,512.000000) scale(0.100000,-0.100000)"
fill="#000000" stroke="none">
<path d="M4542 4988 c-14 -7 -38 -42 -62 -93 -45 -95 -114 -167 -179 -186 -46
-14 -95 -3 -236 52 -87 34 -220 34 -288 0 -68 -33 -158 -120 -218 -210 -34
-50 -57 -75 -67 -73 -9 2 -57 24 -106 49 -89 45 -92 45 -131 32 -35 -12 -45
-23 -82 -94 -23 -44 -44 -84 -45 -88 -2 -4 -41 1 -88 12 -222 51 -522 68 -745
42 -926 -111 -1670 -809 -1852 -1739 -25 -126 -27 -156 -27 -387 0 -231 2
-261 27 -387 183 -933 922 -1625 1857 -1738 122 -15 418 -12 535 5 286 41 527
122 765 256 199 113 359 241 529 424 645 695 744 1755 240 2567 -123 199 -285
381 -488 549 l-43 35 42 84 c33 66 41 91 37 118 -8 48 -19 58 -129 113 l-99
50 18 30 c35 59 108 142 143 161 46 25 91 20 213 -26 56 -21 127 -40 163 -43
172 -16 336 95 430 292 44 89 45 136 5 176 -32 31 -76 37 -119 17z m98 -38
c27 -27 25 -64 -9 -135 -56 -118 -132 -201 -233 -252 -46 -24 -64 -27 -138
-27 -74 1 -100 6 -198 42 -116 43 -161 50 -206 32 -40 -15 -110 -85 -153 -151
-21 -32 -41 -59 -45 -59 -4 0 -33 11 -64 25 -42 19 -55 29 -50 41 14 38 85
133 136 185 68 68 132 100 213 106 55 5 78 0 199 -41 75 -25 152 -46 170 -46
89 0 191 89 249 217 16 34 37 66 46 72 28 16 61 13 83 -9z m-1060 -552 c267
-130 310 -156 310 -190 0 -14 -62 -151 -75 -166 -2 -2 -19 7 -39 20 -28 18
-35 28 -30 43 14 48 16 76 3 91 -21 25 -409 215 -432 212 -12 -2 -33 -19 -46
-40 l-23 -36 -44 15 c-24 8 -44 18 -44 21 0 4 17 38 38 77 37 70 70 98 101 88
9 -4 135 -64 281 -135z m-850 7 c428 -35 873 -221 1195 -501 112 -98 125 -111
207 -204 659 -757 702 -1853 105 -2659 -125 -169 -327 -363 -500 -479 -291
-197 -608 -311 -976 -353 -144 -16 -425 -7 -571 19 -578 103 -1073 425 -1395
907 -78 116 -190 342 -235 470 -263 754 -80 1590 473 2165 311 324 719 537
1177 616 87 15 378 34 425 28 11 -2 54 -6 95 -9z"/>
<path d="M2370 4274 c-69 -7 -268 -43 -330 -60 -472 -132 -866 -416 -1135
-819 -215 -322 -326 -687 -328 -1080 -2 -316 60 -586 198 -870 283 -583 822
-982 1475 -1092 144 -24 443 -24 596 0 861 135 1530 811 1659 1676 21 138 21
412 1 546 -133 873 -781 1534 -1646 1680 -92 16 -398 27 -490 19z m391 -1110
c83 -25 168 -74 225 -131 104 -103 160 -275 136 -417 -11 -67 -64 -197 -88
-217 -22 -18 -17 -27 26 -54 137 -86 223 -229 236 -388 19 -233 -140 -451
-371 -512 -48 -12 -131 -15 -445 -15 -362 0 -387 1 -416 19 -66 40 -66 142 0
182 29 18 54 19 402 19 415 0 439 3 512 66 121 103 129 286 18 397 -74 74 -56
71 -503 77 -388 5 -403 6 -430 26 -15 11 -34 39 -42 60 -12 34 -12 44 0 69 8
15 26 37 41 48 26 19 44 20 335 21 297 1 309 2 349 23 64 34 97 67 129 125 25
45 29 64 29 123 0 40 -7 85 -16 106 -22 50 -73 105 -127 137 l-46 27 -315 5
c-221 4 -321 9 -336 17 -12 7 -29 29 -39 49 -24 50 -8 107 38 134 30 19 52 20
338 20 250 0 315 -3 360 -16z m1323 -1625 c37 -29 33 -60 -20 -147 -173 -284
-431 -522 -729 -670 -159 -79 -380 -149 -530 -167 -27 -3 -66 -7 -85 -10 -19
-2 -73 -5 -119 -6 -77 -1 -86 0 -103 21 -24 29 -23 65 2 90 16 16 34 20 83 21
67 1 80 2 177 13 470 56 949 367 1181 769 64 110 91 127 143 86z"/>
</g>
</svg>
